<svg xmlns="http://www.w3.org/2000/svg" width="318.309" height="56.337" viewBox="0 0 318.309 56.337">
  <g id="Group_14" data-name="Group 14" transform="translate(-1259.329 181.447)">
    <path id="Path_1" data-name="Path 1" d="M199.3,71.941l2.868,0,.03,3.734,2.868,0-.077-9.449-2.868,0,.03,3.764-2.868,0-.031-3.764-2.868,0,.077,9.45,2.868,0Z" transform="translate(1120.921 -245.396)" fill="#6abf4b"/>
    <path id="Path_2" data-name="Path 2" d="M271.765,68.816l-3.976,0-.013-1.557,3.39,0-.016-1.95-3.39,0-.013-1.557,3.667,0,.341-2.193-6.894.005.077,9.449,6.845-.005Z" transform="translate(1085.812 -243.006)" fill="#6abf4b"/>
    <path id="Path_3" data-name="Path 3" d="M335.244,73.385l-3.243,0-.059-7.257-2.868,0,.077,9.449,6.111,0Z" transform="translate(1052.887 -245.35)" fill="#fff"/>
    <path id="Path_4" data-name="Path 4" d="M392.213,71.647l3.175,0,.488,1.647,2.868,0-2.782-9.447-4.449,0L388.884,73.3l2.868,0Zm1.618-5.263.98,3.31h-2.052l.926-3.312Z" transform="translate(1022.219 -244.176)" fill="#fff"/>
    <path id="Path_5" data-name="Path 5" d="M463.48,70.8a2.786,2.786,0,0,0,1.4-.742A2.977,2.977,0,0,0,465.6,68.6a10.574,10.574,0,0,0,.193-2.313,10.725,10.725,0,0,0-.231-2.329,2.976,2.976,0,0,0-.737-1.443,2.916,2.916,0,0,0-1.416-.74,9.88,9.88,0,0,0-2.283-.218l-4.319,0,.077,9.449,4.319,0a10.169,10.169,0,0,0,2.28-.213m-3.79-7.148h1.728a1.67,1.67,0,0,1,1,.219.947.947,0,0,1,.284.778l.027,3.281a.935.935,0,0,1-.271.779,1.653,1.653,0,0,1-.992.22h-1.728Z" transform="translate(987.392 -243.006)" fill="#fff"/>
    <path id="Path_6" data-name="Path 6" d="M525.709,74.378a3.069,3.069,0,0,0,1.457.8,10.787,10.787,0,0,0,4.539,0,3.007,3.007,0,0,0,1.435-.8,3.178,3.178,0,0,0,.754-1.513,10.438,10.438,0,0,0,.209-2.388,10.606,10.606,0,0,0-.247-2.4,3.241,3.241,0,0,0-.779-1.519,3.07,3.07,0,0,0-1.449-.8,10.786,10.786,0,0,0-4.539,0,3.017,3.017,0,0,0-1.444.8,3.189,3.189,0,0,0-.753,1.52,12.663,12.663,0,0,0,.039,4.785,3.235,3.235,0,0,0,.778,1.511m2.04-5.716a.763.763,0,0,1,.279-.68,1.891,1.891,0,0,1,1.017-.2H531l.036,4.49a.758.758,0,0,1-.28.68,1.93,1.93,0,0,1-1.033.2h-1.939Z" transform="translate(952.588 -245.034)" fill="#f32735"/>
    <path id="Path_7" data-name="Path 7" d="M597.581,69.209q-.326.016-.749.016a12.191,12.191,0,0,1-1.647-.112,11.854,11.854,0,0,1-1.633-.34l-.389,2.193a13.076,13.076,0,0,0,1.934.377,17.459,17.459,0,0,0,2.1.119,7.353,7.353,0,0,0,2.4-.326,2.49,2.49,0,0,0,1.344-1.014,3.309,3.309,0,0,0,.417-1.792,3.178,3.178,0,0,0-.38-1.61,2.433,2.433,0,0,0-1.181-.974,6.834,6.834,0,0,0-2.114-.452l-1.337-.1-.01-1.3q.325-.046.6-.061t.765-.016a11.709,11.709,0,0,1,1.288.067q.62.067,1.436.218l.341-2.132a16.5,16.5,0,0,0-3.7-.406,6.6,6.6,0,0,0-2.262.319,2.083,2.083,0,0,0-1.2,1.037,4.33,4.33,0,0,0-.343,1.928,3.728,3.728,0,0,0,.189,1.232,1.935,1.935,0,0,0,.594.846,2.9,2.9,0,0,0,1.088.528,8.8,8.8,0,0,0,1.657.264l1.484.12.011,1.3a6.11,6.11,0,0,1-.7.076" transform="translate(917.474 -243.006)" fill="#f32735"/>
    <path id="Path_8" data-name="Path 8" d="M122.35,93.422,117,111.874h-.353l-5.651-18.443-9.791.007L99.421,122.7l7.469-.006,1.11-18.73h.3l5.654,18.724,5.9,0,5.349-18.733h.3l1.363,18.728,7.47-.005L132.09,93.415Z" transform="translate(1170.642 -259.34)" fill="#fff"/>
    <path id="Path_9" data-name="Path 9" d="M204.169,101.981a8.608,8.608,0,0,0-4.284-2.407,33.644,33.644,0,0,0-13.678.01A8.448,8.448,0,0,0,181.962,102a9.724,9.724,0,0,0-2.158,4.684,37.371,37.371,0,0,0-.57,7.562,37.108,37.108,0,0,0,.692,7.538,9.859,9.859,0,0,0,2.233,4.657,8.6,8.6,0,0,0,4.284,2.408,33.633,33.633,0,0,0,13.678-.011,8.439,8.439,0,0,0,4.245-2.415,9.7,9.7,0,0,0,2.158-4.66,37.015,37.015,0,0,0,.57-7.539,37.518,37.518,0,0,0-.692-7.561,9.894,9.894,0,0,0-2.234-4.681m-5.1,18.663a2.624,2.624,0,0,1-.89,2.295,5.761,5.761,0,0,1-3.225.658l-7.571.006-.129-15.826a2.66,2.66,0,0,1,.865-2.294,5.63,5.63,0,0,1,3.2-.658l7.621-.005Z" transform="translate(1129.718 -262.14)" fill="#fff"/>
    <path id="Path_10" data-name="Path 10" d="M267.533,110.782h-.3a3.642,3.642,0,0,0-.288-1.381,11.284,11.284,0,0,0-1-1.755l-9.705-14.32-7.419.006.237,29.263,7.52-.005-.142-17.464h.3a4.24,4.24,0,0,0,.339,1.358,13.675,13.675,0,0,0,1,1.778l9.705,14.32,7.369-.005-.237-29.264-7.52.006Z" transform="translate(1094.038 -259.287)" fill="#fff"/>
    <path id="Path_11" data-name="Path 11" d="M333.056,100.2l-22.964.018.047,5.759,7.722-.006.191,23.5,7.52-.005-.19-23.5,7.722-.006Z" transform="translate(1062.62 -262.821)" fill="#fff"/>
    <path id="Path_12" data-name="Path 12" d="M363.35,93.251l-8.494,29.27,7.52-.005,1.632-5.62,10.626-.008,1.722,5.617,7.52-.006-8.969-29.257Zm2.166,18.446,3.439-11.848h.454l3.631,11.843Z" transform="translate(1039.667 -259.251)" fill="#fff"/>
    <path id="Path_13" data-name="Path 13" d="M428.548,100.145l-7.52.006.237,29.263,18.17-.014-.047-5.759-10.65.008Z" transform="translate(1005.737 -262.791)" fill="#fff"/>
    <path id="Path_14" data-name="Path 14" d="M484.543,107.679l0-.281a5.879,5.879,0,0,0,2.476-2.671,9.269,9.269,0,0,0,.8-4.074q-.031-3.886-2.317-5.688t-7.282-1.8l-13.223.01.238,29.264,14.939-.012q4.543,0,6.948-2.136a7.648,7.648,0,0,0,2.373-6.112,6.684,6.684,0,0,0-1.371-4.143,6.567,6.567,0,0,0-3.577-2.362m-4.891-8.7a4.453,4.453,0,0,1,.653,2.762,4.187,4.187,0,0,1-.634,2.716,3.193,3.193,0,0,1-2.466.751l-4.593,0-.057-6.976,4.644,0a3.143,3.143,0,0,1,2.453.747m1.43,17.534a3.179,3.179,0,0,1-2.517.868l-5.855,0-.059-7.3,5.9,0a3.3,3.3,0,0,1,2.5.794,4.015,4.015,0,0,1,.754,2.714,4.426,4.426,0,0,1-.733,2.927" transform="translate(983.193 -259.214)" fill="#fff"/>
    <path id="Path_15" data-name="Path 15" d="M527.376,100.061l-8.494,29.27,7.52-.005,1.631-5.62,10.626-.008,1.722,5.617,7.52-.006-8.969-29.257Zm2.166,18.446,3.439-11.848h.454l3.631,11.843Z" transform="translate(955.562 -262.743)" fill="#fff"/>
    <path id="Path_16" data-name="Path 16" d="M604.174,110.529h-.3a3.651,3.651,0,0,0-.288-1.381,11.286,11.286,0,0,0-1-1.755l-9.706-14.32-7.419.006.237,29.263,7.52-.005-.142-17.464h.3a4.243,4.243,0,0,0,.339,1.358,13.609,13.609,0,0,0,1,1.778l9.706,14.32,7.369-.005-.238-29.264-7.52.006Z" transform="translate(921.425 -259.157)" fill="#fff"/>
    <path id="Path_17" data-name="Path 17" d="M678.08,106.307a9.9,9.9,0,0,0-2.234-4.681,8.611,8.611,0,0,0-4.284-2.407,33.645,33.645,0,0,0-13.677.01,8.448,8.448,0,0,0-4.245,2.414,9.71,9.71,0,0,0-2.157,4.684,37.3,37.3,0,0,0-.57,7.562,37.076,37.076,0,0,0,.692,7.538,9.846,9.846,0,0,0,2.233,4.657,8.6,8.6,0,0,0,4.284,2.408,33.633,33.633,0,0,0,13.678-.011,8.441,8.441,0,0,0,4.245-2.415,9.707,9.707,0,0,0,2.158-4.66,37.05,37.05,0,0,0,.569-7.539,37.527,37.527,0,0,0-.691-7.561m-7.331,13.982a2.624,2.624,0,0,1-.89,2.295,5.761,5.761,0,0,1-3.225.658l-7.571.006-.129-15.826a2.66,2.66,0,0,1,.865-2.294,5.632,5.632,0,0,1,3.2-.658l7.621-.005Z" transform="translate(887.865 -261.958)" fill="#fff"/>
    <rect id="Rectangle_2" data-name="Rectangle 2" width="106.103" height="1.323" transform="translate(1259.329 -126.433)" fill="#6abf4b"/>
    <rect id="Rectangle_3" data-name="Rectangle 3" width="106.103" height="1.323" transform="translate(1365.432 -126.433)" fill="#fff"/>
    <rect id="Rectangle_4" data-name="Rectangle 4" width="106.103" height="1.323" transform="translate(1471.535 -126.433)" fill="#f32735"/>
  </g>
</svg>
